<svg width="17" height="17" viewBox="0 0 17 17" fill="none" xmlns="http://www.w3.org/2000/svg">
<g id="01 align center">
<path id="Vector" d="M1.02258 4.7237C0.785397 4.79147 0.570022 4.91999 0.397764 5.09656C0.225506 5.27312 0.102336 5.4916 0.0404401 5.73038C-0.0214554 5.96916 -0.0199304 6.21996 0.0448641 6.45797C0.109659 6.69598 0.235477 6.91295 0.409869 7.08741L2.8267 9.5014V14.1665H7.49674L9.92987 16.5961C10.0605 16.7278 10.2158 16.8324 10.387 16.9039C10.5581 16.9753 10.7417 17.0123 10.9272 17.0126C11.0491 17.0123 11.1705 16.9966 11.2885 16.9658C11.5271 16.9057 11.7458 16.7838 11.9223 16.6123C12.0989 16.4408 12.2272 16.2258 12.2943 15.989L16.9934 0.0147057L1.02258 4.7237ZM1.41641 6.08582L13.4779 2.52999L4.24479 11.7482V8.9149L1.41641 6.08582ZM10.9364 15.5945L8.08395 12.7498H5.25062L14.4823 3.52591L10.9364 15.5945Z" fill="#050505" fill-opacity="0.72"/>
</g>
</svg>
